HIERARCHY
ROOT hip
{
	OFFSET 0.000000 0.000000 0.000000 
	CHANNELS 6 Xposition Yposition Zposition Xrotation Zrotation Yrotation
	JOINT abdomen
	{
		OFFSET 0.000000 3.402643 0.000000 
		CHANNELS 3 Xrotation Zrotation Yrotation
		JOINT chest
		{
			OFFSET 0.000000 8.438565 -0.680529 
			CHANNELS 3 Xrotation Zrotation Yrotation
			JOINT neck
			{
				OFFSET 0.000000 10.207942 -0.272212 
				CHANNELS 3 Xrotation Zrotation Yrotation
				JOINT head
				{
					OFFSET 0.000000 3.130431 0.000000 
					CHANNELS 3 Xrotation Zrotation Yrotation
					End Site
					{
						OFFSET 0.000000 3.130435 0.000000 
					}
				}
			}
			JOINT lCollar
			{
				OFFSET 3.470700 6.669187 -0.816635 
				CHANNELS 3 Yrotation Zrotation Xrotation
				JOINT lShldr
				{
					OFFSET 3.198488 0.000000 0.000000 
					CHANNELS 3 Zrotation Yrotation Xrotation
					JOINT lForeArm
					{
						OFFSET 10.139888 0.000000 0.000000 
						CHANNELS 3 Yrotation Zrotation Xrotation
						JOINT lHand
						{
							OFFSET 8.370511 0.000000 0.000000 
							CHANNELS 3 Zrotation Yrotation Xrotation
							End Site
							{
								OFFSET 4.083176 0.000000 0.000000 
							}
						}
					}
				}
			}
			JOINT rCollar
			{
				OFFSET -3.470700 6.669187 -0.816635 
				CHANNELS 3 Yrotation Zrotation Xrotation
				JOINT rShldr
				{
					OFFSET -3.198488 0.000000 0.000000 
					CHANNELS 3 Zrotation Yrotation Xrotation
					JOINT rForeArm
					{
						OFFSET -10.139888 0.000000 0.000000 
						CHANNELS 3 Yrotation Zrotation Xrotation
						JOINT rHand
						{
							OFFSET -8.370511 0.000000 0.000000 
							CHANNELS 3 Zrotation Yrotation Xrotation
							End Site
							{
								OFFSET -4.083176 0.000000 0.000000 
							}
						}
					}
				}
			}
		}
	}
	JOINT lThigh
	{
		OFFSET 5.308129 -1.633274 1.361059 
		CHANNELS 3 Xrotation Zrotation Yrotation
		JOINT lShin
		{
			OFFSET -2.041588 -20.007561 0.000000 
			CHANNELS 3 Xrotation Zrotation Yrotation
			JOINT lFoot
			{
				OFFSET 0.000000 -19.190928 -1.224953 
				CHANNELS 3 Xrotation Yrotation Zrotation
				End Site
				{
					OFFSET 0.000000 -2.449906 4.627600 
				}
			}
		}
	}
	JOINT rThigh
	{
		OFFSET -5.308129 -1.633274 1.361059 
		CHANNELS 3 Xrotation Zrotation Yrotation
		JOINT rShin
		{
			OFFSET 2.041588 -20.007561 0.000000 
			CHANNELS 3 Xrotation Zrotation Yrotation
			JOINT rFoot
			{
				OFFSET 0.000000 -19.190928 -1.224953 
				CHANNELS 3 Xrotation Yrotation Zrotation
				End Site
				{
					OFFSET 0.000000 -2.449906 4.627600 
				}
			}
		}
	}
}
MOTION
Frames: 14
Frame Time: 0.030334
-31.478518 38.558769 -15.490835 13.422200 1.424850 -16.505600 0.644909 -4.739770 -5.030060 0.276390 -2.031330 -2.155740 -18.633900 -4.186630 13.905000 0.314565 1.089230 6.210160 2.000000 -2.000000 0.000000 -76.048203 -22.860901 -127.904999 64.326698 -0.274081 0.123272 0.045704 -0.018500 -143.542999 -2.000000 2.000000 0.000000 85.551003 -2.373180 -163.345001 -70.088402 0.261411 0.128551 -0.082894 0.075222 -164.880997 -15.986195 -3.320469 25.757023 56.823822 1.224830 3.877251 -9.659830 -6.784268 -1.322611 -46.407230 -0.219784 15.771151 50.103436 -1.588639 -3.564993 -15.572796 -3.415423 -1.880986 
-31.847101 38.037422 -13.738696 13.973000 2.871580 -17.840401 1.555819 -4.941320 -5.364499 0.666780 -2.117709 -2.299071 -18.832399 -5.152080 15.092000 0.274848 0.524063 6.675970 2.000000 -2.000000 0.000000 -72.617996 -21.168200 -132.162003 56.396999 -0.290513 0.113924 0.046620 -0.025164 -145.945007 -2.000000 2.000000 0.000000 84.841400 -1.568610 -169.192993 -59.521999 0.284193 0.117831 -0.080126 0.069758 -162.692993 -19.339857 1.279050 29.077717 66.978905 0.470823 4.310995 -8.787305 -3.530432 -0.141813 -46.138153 -2.581438 15.947901 50.553711 -1.586826 -3.579761 -20.036013 -0.704062 -1.337390 
-32.048634 37.300446 -11.956339 14.735000 4.552890 -20.405500 2.079001 -5.198655 -4.857069 0.891000 -2.227995 -2.081601 -19.802500 -6.454330 16.135401 0.391320 0.104808 7.006250 2.000000 -2.000000 0.000000 -68.058800 -16.953199 -140.037003 49.287601 -0.304024 0.103686 0.049020 -0.037259 -150.348999 -2.000000 2.000000 0.000000 -97.070702 -178.612000 4.488890 -49.727001 0.303227 0.104316 -0.076984 0.062836 -159.977997 -22.534395 6.593828 31.622841 75.681587 -0.282264 4.581477 -7.640918 -5.715438 -0.206211 -47.641338 -4.961926 13.047277 52.731911 -1.476185 -3.684348 -26.104706 2.144447 -0.040265 
-32.061440 36.524864 -10.210085 16.247700 5.805180 -23.643400 3.279221 -5.536037 -3.739708 1.405380 -2.372588 -1.602732 -21.092100 -7.662350 16.797100 0.087273 -0.469422 7.113480 2.000000 -2.000000 0.000000 -62.904800 -12.344500 -150.335999 41.728901 -0.316881 0.091057 0.065529 -0.058712 -158.386993 -2.000000 2.000000 0.000000 -100.205002 -177.602997 -2.066680 -41.455502 0.317314 0.090516 -0.074928 0.067534 -158.024994 -26.403124 13.225285 32.148911 82.719627 -0.922195 4.732958 -7.340426 -11.480211 -0.768104 -50.880722 -6.421461 10.270056 56.071293 -1.220825 -3.872833 -29.245367 5.287528 1.845680 
-31.984152 35.789612 -8.390003 18.005699 7.378450 -24.142700 5.516280 -5.863328 -3.139017 2.364120 -2.512855 -1.345293 -22.547501 -8.657230 17.023800 -0.314465 -0.916295 7.013920 2.000000 -2.000000 0.000000 -56.758999 -7.800810 -158.205002 34.502300 -0.327517 0.077500 -179.925003 -179.906006 6.994340 -2.000000 2.000000 0.000000 -104.161003 -174.216995 -7.572390 -34.023800 0.328160 0.076502 -0.063808 0.054129 -156.639008 -31.802622 18.527952 28.338400 87.894829 -1.395617 4.768021 -7.819312 -13.162287 -0.655680 -53.468098 -9.411571 8.170944 59.093281 -1.026585 -4.016877 -32.587605 5.527045 2.226404 
-31.751276 35.361938 -6.463876 20.128799 9.124430 -23.381300 7.423780 -5.872962 -2.408000 3.181620 -2.516984 -1.032000 -23.900900 -9.290710 16.602200 -0.735127 -1.109540 6.646150 2.000000 -2.000000 0.000000 -50.228401 -1.268410 -162.906998 28.232700 -0.335300 0.064734 -179.903000 -179.871994 -4.568140 -2.000000 2.000000 0.000000 72.392998 -11.926900 168.944000 -26.552999 0.337144 0.061119 -0.058051 0.034032 -149.167999 -38.740871 22.788296 22.660732 90.685249 -1.627219 4.787350 -8.091369 -11.222827 0.174635 -54.989021 -12.682420 7.377250 60.416119 -0.963871 -4.055538 -35.084389 4.284286 1.356567 
-31.316301 35.225899 -4.483218 22.576099 9.410530 -21.550100 9.006061 -5.184737 -1.680588 3.859740 -2.222030 -0.720252 -25.330900 -9.362960 16.065100 -1.174120 -0.962003 6.299630 2.000000 -2.000000 0.000000 -44.762501 7.622070 -165.533997 23.886999 -0.339854 0.055421 0.106114 -0.126282 171.164001 -2.000000 2.000000 0.000000 69.910103 -20.692101 171.227997 -20.742399 0.342702 0.048424 -0.054764 0.010821 -140.789001 -47.263905 26.978113 15.738450 91.131332 -1.561450 4.737772 -9.332800 -8.666521 1.014510 -54.379917 -15.060858 6.212826 59.570705 -1.061173 -4.007390 -36.494282 2.966676 0.172140 
-30.695969 35.388340 -2.315831 24.297701 8.503790 -18.278799 11.115020 -4.141623 -1.424185 4.763580 -1.774981 -0.610365 -25.958000 -8.959080 15.145000 -1.377240 -0.329305 5.940720 2.000000 -2.000000 0.000000 -40.422001 18.082701 -164.817993 21.826401 -0.341764 0.050891 0.113910 -0.132020 167.707001 -2.000000 2.000000 0.000000 -111.609001 -149.613998 2.093770 -17.871300 0.344967 0.041959 -0.054722 -0.000428 -133.279007 -56.732044 28.644608 8.404837 88.294250 -1.180158 4.661253 -11.972193 -6.614334 1.482638 -50.817688 -17.641148 3.718871 57.052441 -1.354446 -3.839747 -36.424458 1.265926 -1.505568 
-29.910164 35.657726 0.143638 26.026300 6.077940 -14.187800 12.647530 -3.037894 -1.310147 5.420370 -1.301955 -0.561492 -26.307600 -8.594770 14.366100 -1.649350 0.312796 5.761530 2.000000 -2.000000 0.000000 -38.386299 30.531500 -165.875000 21.113501 -0.342386 0.049308 0.116128 -0.133524 166.750000 -2.000000 2.000000 0.000000 65.589401 -41.594200 -158.065994 -20.869400 0.342595 0.048707 -0.054869 -0.002529 -132.526993 -66.472221 28.505756 2.057651 81.594315 -0.480489 4.575027 -13.473436 -5.285118 1.818302 -45.524113 -19.801729 -1.450116 54.132431 -1.643014 -3.673141 -33.999191 0.046179 -2.775839 
-28.926643 35.885098 2.954067 26.285500 2.443240 -10.024100 13.215950 -3.878006 -0.033039 5.663979 -1.662002 -0.014159 -26.542700 -9.518850 13.405500 -1.786380 0.128408 5.203340 2.000000 -2.000000 0.000000 -33.869202 42.145500 -164.757004 21.328400 -0.342201 0.049786 0.120219 -0.136161 165.011993 -2.000000 2.000000 0.000000 64.242599 -53.796700 -141.233994 -27.158501 0.336491 0.062408 -0.054440 0.003636 -138.220993 -73.613945 27.042027 -2.013239 71.980232 0.502304 4.253884 -11.191701 -2.955139 2.191026 -38.625530 -21.662704 -7.451169 52.517982 -1.977691 -3.491589 -27.838654 3.871209 -1.170683 
-27.807755 35.998112 6.147259 24.926701 -1.895320 -4.669850 13.737347 -4.633569 1.774815 5.887434 -1.985815 0.760635 -26.132601 -11.015200 11.267100 -1.513620 -0.192864 3.906820 2.000000 -2.000000 0.000000 -27.752100 50.601700 -160.815002 21.289301 -0.342235 0.049699 0.131291 -0.142464 160.460999 -2.000000 2.000000 0.000000 62.640499 -64.859703 -130.653000 -33.857800 0.328381 0.076173 -0.055426 0.018119 -143.406006 -77.846695 24.459337 -2.826306 60.674770 1.636678 3.765286 -4.361658 3.346139 1.586624 -29.487993 -23.145378 -13.276917 52.257504 -2.389586 -3.333190 -15.197584 9.314481 -1.156740 
-26.699539 35.821629 9.608669 21.990000 -6.823780 2.086740 14.263899 -3.529874 3.092516 6.113100 -1.512803 1.325364 -26.042500 -11.049400 8.721810 -1.561680 0.176590 2.689340 2.000000 -2.000000 0.000000 -25.743299 57.754200 -163.369995 21.074499 -0.342420 0.049221 0.132898 -0.143285 159.817001 -2.000000 2.000000 0.000000 56.259701 -72.490097 -121.267998 -37.881199 0.322757 0.083952 -0.056642 0.026729 -146.511993 -79.801903 23.366116 4.240814 50.717995 2.715053 3.174402 1.984766 12.091992 -2.648256 -16.684124 -21.454767 -17.590363 51.867672 -2.813063 -3.199247 -5.547589 5.435157 -3.442018 
-25.529423 35.080872 13.174958 16.662701 -12.450900 10.349200 14.275870 -2.763579 4.399052 6.118230 -1.184391 1.885308 -25.705500 -10.127300 5.461230 -1.814750 0.973676 1.347570 2.000000 -2.000000 0.000000 -24.705099 61.619999 -168.199997 20.381100 -0.343005 0.047674 0.127457 -0.140413 162.014008 -2.000000 2.000000 0.000000 58.200802 -76.226601 -124.169998 -37.949600 0.322657 0.084080 -0.057393 0.030845 -148.005997 -78.731110 25.825216 23.220375 46.209930 3.129064 2.907654 6.724036 11.184063 -7.284579 -2.505496 -15.707667 -21.472376 54.477150 -3.348053 -3.185348 -5.172887 3.857149 -3.787248 
-24.334705 33.914799 16.735519 10.902200 -16.298800 18.993999 13.015870 -2.141748 5.649524 5.578230 -0.917892 2.421225 -25.827200 -9.714320 2.052750 -2.322810 1.497930 -0.193813 2.000000 -2.000000 0.000000 154.690002 116.838997 6.789390 19.619400 -0.343627 0.045966 0.123210 -0.137980 163.761993 -2.000000 2.000000 0.000000 -107.619003 -106.349998 38.316299 -33.008202 0.329498 0.074481 -0.058174 0.034593 -149.373001 -75.239166 25.413660 32.448689 50.806347 2.705086 3.168163 8.147370 5.675341 -7.591588 8.683372 -9.546159 -24.298409 60.662693 -3.436082 -3.363796 -8.548188 -0.575109 -4.116413 
